<mxfile host="app.diagrams.net" agent="Mozilla/5.0 (Windows NT 10.0; Win64; x64) AppleWebKit/537.36 (KHTML, like Gecko) Chrome/137.0.0.0 Safari/537.36 Edg/137.0.0.0" version="27.1.4">
  <diagram name="PÃ¡gina-1" id="xHijodVW_zs5Y0ouv-vi">
    <mxGraphModel dx="1880" dy="1036" grid="1" gridSize="10" guides="1" tooltips="1" connect="1" arrows="1" fold="1" page="1" pageScale="1" pageWidth="827" pageHeight="1169" math="0" shadow="0">
      <root>
        <mxCell id="0" />
        <mxCell id="1" parent="0" />
        <mxCell id="X9ldh_xFSQ9kU8KsC1Hq-3" style="edgeStyle=orthogonalEdgeStyle;rounded=0;orthogonalLoop=1;jettySize=auto;html=1;exitX=0.5;exitY=1;exitDx=0;exitDy=0;entryX=0.5;entryY=0;entryDx=0;entryDy=0;" edge="1" parent="1" target="X9ldh_xFSQ9kU8KsC1Hq-2">
          <mxGeometry relative="1" as="geometry">
            <mxPoint x="340" y="90" as="sourcePoint" />
          </mxGeometry>
        </mxCell>
        <mxCell id="X9ldh_xFSQ9kU8KsC1Hq-1" value="inicio del programa" style="ellipse;whiteSpace=wrap;html=1;" vertex="1" parent="1">
          <mxGeometry x="270" width="140" height="80" as="geometry" />
        </mxCell>
        <mxCell id="X9ldh_xFSQ9kU8KsC1Hq-2" value="nombre&lt;div&gt;edad&lt;/div&gt;&lt;div&gt;numero de cuenta&lt;/div&gt;&lt;div&gt;dinero que desea solicitar&lt;/div&gt;" style="shape=parallelogram;perimeter=parallelogramPerimeter;whiteSpace=wrap;html=1;fixedSize=1;" vertex="1" parent="1">
          <mxGeometry x="235" y="110" width="210" height="90" as="geometry" />
        </mxCell>
        <mxCell id="X9ldh_xFSQ9kU8KsC1Hq-8" style="edgeStyle=orthogonalEdgeStyle;rounded=0;orthogonalLoop=1;jettySize=auto;html=1;exitX=0;exitY=0.5;exitDx=0;exitDy=0;" edge="1" parent="1" source="X9ldh_xFSQ9kU8KsC1Hq-4">
          <mxGeometry relative="1" as="geometry">
            <mxPoint x="140" y="270" as="targetPoint" />
          </mxGeometry>
        </mxCell>
        <mxCell id="X9ldh_xFSQ9kU8KsC1Hq-11" style="edgeStyle=orthogonalEdgeStyle;rounded=0;orthogonalLoop=1;jettySize=auto;html=1;exitX=1;exitY=0.5;exitDx=0;exitDy=0;" edge="1" parent="1" source="X9ldh_xFSQ9kU8KsC1Hq-4">
          <mxGeometry relative="1" as="geometry">
            <mxPoint x="520" y="270" as="targetPoint" />
          </mxGeometry>
        </mxCell>
        <mxCell id="X9ldh_xFSQ9kU8KsC1Hq-4" value="edad &amp;gt; 18" style="rhombus;whiteSpace=wrap;html=1;" vertex="1" parent="1">
          <mxGeometry x="300" y="230" width="80" height="80" as="geometry" />
        </mxCell>
        <mxCell id="X9ldh_xFSQ9kU8KsC1Hq-27" style="edgeStyle=orthogonalEdgeStyle;rounded=0;orthogonalLoop=1;jettySize=auto;html=1;exitX=1;exitY=0.75;exitDx=0;exitDy=0;entryX=0;entryY=0.5;entryDx=0;entryDy=0;" edge="1" parent="1" source="X9ldh_xFSQ9kU8KsC1Hq-5" target="X9ldh_xFSQ9kU8KsC1Hq-23">
          <mxGeometry relative="1" as="geometry" />
        </mxCell>
        <mxCell id="X9ldh_xFSQ9kU8KsC1Hq-5" value="lo sentimos no admitimos prestamos a menores" style="shape=document;whiteSpace=wrap;html=1;boundedLbl=1;" vertex="1" parent="1">
          <mxGeometry x="10" y="230" width="120" height="80" as="geometry" />
        </mxCell>
        <mxCell id="X9ldh_xFSQ9kU8KsC1Hq-9" value="no" style="text;html=1;align=center;verticalAlign=middle;whiteSpace=wrap;rounded=0;" vertex="1" parent="1">
          <mxGeometry x="180" y="230" width="70" height="40" as="geometry" />
        </mxCell>
        <mxCell id="X9ldh_xFSQ9kU8KsC1Hq-14" style="edgeStyle=orthogonalEdgeStyle;rounded=0;orthogonalLoop=1;jettySize=auto;html=1;entryX=0.5;entryY=0;entryDx=0;entryDy=0;" edge="1" parent="1" source="X9ldh_xFSQ9kU8KsC1Hq-10" target="X9ldh_xFSQ9kU8KsC1Hq-13">
          <mxGeometry relative="1" as="geometry" />
        </mxCell>
        <mxCell id="X9ldh_xFSQ9kU8KsC1Hq-10" value="consultando su solicitud denos un momento" style="shape=document;whiteSpace=wrap;html=1;boundedLbl=1;" vertex="1" parent="1">
          <mxGeometry x="540" y="240" width="120" height="80" as="geometry" />
        </mxCell>
        <mxCell id="X9ldh_xFSQ9kU8KsC1Hq-12" value="si" style="text;html=1;align=center;verticalAlign=middle;whiteSpace=wrap;rounded=0;" vertex="1" parent="1">
          <mxGeometry x="410" y="240" width="60" height="30" as="geometry" />
        </mxCell>
        <mxCell id="X9ldh_xFSQ9kU8KsC1Hq-17" style="edgeStyle=orthogonalEdgeStyle;rounded=0;orthogonalLoop=1;jettySize=auto;html=1;exitX=1;exitY=0.5;exitDx=0;exitDy=0;entryX=0.5;entryY=0;entryDx=0;entryDy=0;" edge="1" parent="1" source="X9ldh_xFSQ9kU8KsC1Hq-13" target="X9ldh_xFSQ9kU8KsC1Hq-16">
          <mxGeometry relative="1" as="geometry" />
        </mxCell>
        <mxCell id="X9ldh_xFSQ9kU8KsC1Hq-20" style="edgeStyle=orthogonalEdgeStyle;rounded=0;orthogonalLoop=1;jettySize=auto;html=1;exitX=0;exitY=0.5;exitDx=0;exitDy=0;entryX=0.5;entryY=0;entryDx=0;entryDy=0;" edge="1" parent="1" source="X9ldh_xFSQ9kU8KsC1Hq-13" target="X9ldh_xFSQ9kU8KsC1Hq-19">
          <mxGeometry relative="1" as="geometry" />
        </mxCell>
        <mxCell id="X9ldh_xFSQ9kU8KsC1Hq-13" value="dinero solicitado &amp;lt; 6000000" style="rhombus;whiteSpace=wrap;html=1;" vertex="1" parent="1">
          <mxGeometry x="515" y="360" width="170" height="80" as="geometry" />
        </mxCell>
        <mxCell id="X9ldh_xFSQ9kU8KsC1Hq-26" style="edgeStyle=orthogonalEdgeStyle;rounded=0;orthogonalLoop=1;jettySize=auto;html=1;exitX=0;exitY=0.75;exitDx=0;exitDy=0;entryX=1;entryY=0.5;entryDx=0;entryDy=0;" edge="1" parent="1" source="X9ldh_xFSQ9kU8KsC1Hq-16" target="X9ldh_xFSQ9kU8KsC1Hq-23">
          <mxGeometry relative="1" as="geometry" />
        </mxCell>
        <mxCell id="X9ldh_xFSQ9kU8KsC1Hq-16" value="lo sentimos su solicitud exede el limite de dinero que podemos prestarle" style="shape=document;whiteSpace=wrap;html=1;boundedLbl=1;" vertex="1" parent="1">
          <mxGeometry x="700" y="450" width="120" height="90" as="geometry" />
        </mxCell>
        <mxCell id="X9ldh_xFSQ9kU8KsC1Hq-18" value="no" style="text;html=1;align=center;verticalAlign=middle;whiteSpace=wrap;rounded=0;" vertex="1" parent="1">
          <mxGeometry x="730" y="360" width="60" height="30" as="geometry" />
        </mxCell>
        <mxCell id="X9ldh_xFSQ9kU8KsC1Hq-22" value="" style="edgeStyle=orthogonalEdgeStyle;rounded=0;orthogonalLoop=1;jettySize=auto;html=1;" edge="1" parent="1" source="X9ldh_xFSQ9kU8KsC1Hq-19" target="X9ldh_xFSQ9kU8KsC1Hq-21">
          <mxGeometry relative="1" as="geometry" />
        </mxCell>
        <mxCell id="X9ldh_xFSQ9kU8KsC1Hq-19" value="su solicitud fue aprovada" style="shape=document;whiteSpace=wrap;html=1;boundedLbl=1;" vertex="1" parent="1">
          <mxGeometry x="380" y="450" width="120" height="80" as="geometry" />
        </mxCell>
        <mxCell id="X9ldh_xFSQ9kU8KsC1Hq-25" style="edgeStyle=orthogonalEdgeStyle;rounded=0;orthogonalLoop=1;jettySize=auto;html=1;exitX=0.5;exitY=1;exitDx=0;exitDy=0;entryX=0.5;entryY=0;entryDx=0;entryDy=0;" edge="1" parent="1" source="X9ldh_xFSQ9kU8KsC1Hq-21" target="X9ldh_xFSQ9kU8KsC1Hq-23">
          <mxGeometry relative="1" as="geometry" />
        </mxCell>
        <mxCell id="X9ldh_xFSQ9kU8KsC1Hq-21" value="se agrega el dinero en la cuenta bancaria" style="whiteSpace=wrap;html=1;" vertex="1" parent="1">
          <mxGeometry x="380" y="620" width="120" height="60" as="geometry" />
        </mxCell>
        <mxCell id="X9ldh_xFSQ9kU8KsC1Hq-23" value="fin del programa" style="ellipse;whiteSpace=wrap;html=1;" vertex="1" parent="1">
          <mxGeometry x="325" y="770" width="120" height="80" as="geometry" />
        </mxCell>
      </root>
    </mxGraphModel>
  </diagram>
</mxfile>
